# xmcd
#
# Track frame offsets: 
#        150
#        15743
#        33288
#        46040
#        59980
#        76449
#        90181
#        106172
#        119801
#        135353
#
# Disc length: 2051 seconds
#
# Revision: 0
# Processed by: cddbd v1.5.1PL0 Copyright (c) Steve Scherf et al.
# Submitted via: ExactAudioCopy v0.95a5
#
DISCID=7908010a
DTITLE=Blaine Larsen - In My High School
DYEAR=2004
DGENRE=Country
TTITLE0=The Best Man
TTITLE1=In My High School
TTITLE2=Teaching Me How To Love You
TTITLE3=I've Been In Mexico
TTITLE4=If Merle Would Sing My Song
TTITLE5=Yessireebob
TTITLE6=The Man He'll Never Be
TTITLE7=That's Just Me
TTITLE8=Off To Join The World
TTITLE9=How Do You Get That Lonely
EXTD=
EXTT0=
EXTT1=
EXTT2=
EXTT3=
EXTT4=
EXTT5=
EXTT6=
EXTT7=
EXTT8=
EXTT9=
PLAYORDER=
